<?xml version="1.0" standalone="yes"?>
<svg xmlns="http://www.w3.org/2000/svg" width="500" height="500">
<path style="fill:#fdf3e7; stroke:none;" d="M0 0L0 500L500 500L500 0L0 0z"/>
<path style="fill:#0c0c0b; stroke:none;" d="M124 237L124 232C132.001 232 142.201 230.29 149.946 232.317C153.963 233.368 155.518 236.653 160 237C159.453 235.125 158.89 233.745 158 232L182 232L180 237C184.513 236.652 186.093 233.395 190.104 232.317C197.786 230.252 208.05 232 216 232L216 237L221 237C221 226.627 220.639 216.569 216.11 207C205.525 184.637 179.345 174.192 156 180.489C148.904 182.403 143.161 186.202 137 190C137.295 175.699 142.416 161.644 148.753 149C154.475 137.584 161.987 128.002 171 119C179.32 110.69 188.441 103.55 199 98.2701C254.826 70.3537 323.873 93.0509 352.244 149C358.56 161.456 363.709 175.898 364 190C353.152 183.445 342.968 178.605 330 178.259C310.26 177.733 290.738 192.176 283.454 210C279.784 218.978 280 227.481 280 237L285 237L285 232C292.95 232 303.214 230.252 310.896 232.317C314.907 233.395 316.487 236.652 321 237L319 232L343 232C342.11 233.745 341.547 235.125 341 237C345.482 236.653 347.037 233.368 351.054 232.317C358.799 230.29 368.999 232 377 232L377 237C384.55 235.74 382.079 225.702 381.076 220C379.459 210.804 373.836 204.423 370.663 196C367.742 188.248 368.132 179.073 366.105 171C353.998 122.797 309.51 83.2547 259 81.0394C205.986 78.7142 157.402 108.723 138.425 159C133.959 170.831 133.828 183.034 130.574 195C128.375 203.088 122.094 209.424 120.286 218C119.05 223.864 116.007 235.666 124 237z"/>
<path style="fill:#fdf3e7; stroke:none;" d="M124 227L216 227C215.715 220.377 214.008 213.968 211.099 208C191.051 166.878 124.945 181.477 124 227M285 227L377 227C376.727 220.738 374.928 214.645 372.215 209C355.739 174.727 303.084 175.094 288.454 211C286.351 216.159 285.115 221.438 285 227z"/>
<path style="fill:#0c0c0b; stroke:none;" d="M177 298C182.069 308.667 190.796 318.653 198 328C188.734 325.39 179.339 323.208 170 320.873C164.426 319.48 158.778 317.402 153 318C154.971 324.246 163.374 324.467 169 325.873C182.141 329.159 201.601 329.561 208 343C194.493 343.279 177.796 345.668 165 350L166 354C176.722 352.644 187.301 350.365 198 348.87C201.684 348.355 207.204 346.461 210.816 347.693C213.891 348.742 215.533 352.377 217 355C203.971 359.24 190.997 363.662 178 368C175.399 368.868 171.552 369.524 169.662 371.683C168.596 372.901 168.622 374.649 170.337 375.216C173.817 376.367 179.715 373.095 183 372C190.998 369.334 199.081 366.84 207 363.947C210.49 362.671 215.138 359.899 218.961 360.363C223.337 360.896 226.119 366.807 228.424 370C234.569 378.511 240.831 389.284 253 387.808C262.743 386.626 268.132 376.201 273.29 369C275.434 366.008 277.957 360.86 282.039 360.363C285.862 359.899 290.51 362.671 294 363.947C301.919 366.84 310.002 369.334 318 372C321.285 373.095 327.183 376.367 330.663 375.216C332.378 374.649 332.404 372.901 331.338 371.683C329.448 369.524 325.601 368.868 323 368C310.003 363.662 297.029 359.24 284 355C285.696 352.076 287.591 348.782 291.015 347.643C294.646 346.434 299.348 348.344 303 348.869C313.687 350.406 324.293 352.64 335 354L336 350C330.514 347.945 324.744 347.528 319 346.565C310.343 345.113 301.816 343.024 293 343C299.689 329.581 318.713 329.195 332 325.873C337.626 324.467 346.029 324.246 348 318C342.222 317.402 336.574 319.48 331 320.873C321.661 323.208 312.266 325.39 303 328C310.204 318.653 318.931 308.667 324 298C315.15 298.29 311.141 307.468 306.424 314C294.692 330.249 281.592 345.991 271 363C262.625 353.612 251.203 347.534 239.004 354.533C235.156 356.741 232.486 360.344 229 363C226.195 355.708 220.259 349.26 215.629 343C208.035 332.733 200.684 322.286 193.116 312C188.6 305.864 185.349 298.273 177 298z"/>
<path style="fill:#fdf3e7; stroke:none;" d="M247 356.544C242.101 357.556 235.45 361.533 234.738 367C233.677 375.158 245.51 384.224 253 382.602C258.523 381.406 267.113 373.188 266.073 367C264.746 359.116 253.988 355.1 247 356.544z"/>
</svg>
